<svg width="661" height="646" viewBox="0 0 661 646" fill="none" xmlns="http://www.w3.org/2000/svg">
<g clip-path="url(#clip0_46_31)">
<path d="M204.144 604.257L204.851 588.357C212.223 584.416 220.445 582.335 228.804 582.293C217.3 591.699 218.737 609.829 210.938 622.477C208.475 626.403 205.16 629.725 201.239 632.196C197.318 634.667 192.891 636.224 188.286 636.751L178.659 642.646C177.338 635.281 177.63 627.718 179.513 620.477C181.396 613.236 184.827 606.49 189.569 600.703C192.261 597.482 195.349 594.614 198.758 592.165C201.063 598.245 204.144 604.257 204.144 604.257Z" fill="#F2F2F2"/>
<path d="M602.08 372.579C628.035 352.81 640.432 319.59 632.671 287.9C632.478 287.113 632.275 286.327 632.06 285.543C626.915 266.733 614.186 248.855 595.633 242.844C580.056 237.797 563.052 241.678 546.801 239.671C514.898 235.732 490.165 209.919 472.762 182.893C455.359 155.867 441.984 125.616 418.86 103.288C380.742 66.4852 318.563 58.5615 271.303 82.5175C224.043 106.474 193.939 159.622 195.223 212.591C196.507 265.56 227.952 316.202 273.619 343.071C290.395 352.941 309.799 359.934 329.109 357.487C345.864 355.364 361.088 346.361 377.764 343.688C403.983 339.486 430.035 351.341 452.713 365.154C475.39 378.968 497.295 395.342 523.065 401.746C548.087 407.965 579.088 390.091 602.08 372.579Z" fill="#F2F2F2"/>
<path d="M396.71 136.024H138.137C132.744 136.03 127.574 138.175 123.761 141.988C119.948 145.801 117.803 150.971 117.797 156.364V285.054C117.803 290.447 119.948 295.616 123.761 299.43C127.574 303.243 132.744 305.388 138.137 305.394H396.71C402.103 305.389 407.274 303.245 411.088 299.432C414.901 295.618 417.046 290.447 417.05 285.054V156.364C417.046 150.97 414.901 145.8 411.088 141.986C407.274 138.173 402.103 136.028 396.71 136.024V136.024Z" fill="#F3F6F7"/>
<path d="M396.711 306.397H138.142C132.484 306.39 127.059 304.14 123.059 300.139C119.058 296.138 116.807 290.714 116.801 285.056V156.362C116.807 150.704 119.058 145.28 123.059 141.279C127.059 137.278 132.484 135.028 138.142 135.022H396.711C402.369 135.028 407.793 137.278 411.794 141.279C415.795 145.28 418.045 150.704 418.052 156.362V285.056C418.045 290.714 415.795 296.138 411.794 300.139C407.793 304.14 402.369 306.39 396.711 306.397ZM138.142 137.022C133.014 137.027 128.098 139.067 124.472 142.693C120.846 146.319 118.807 151.234 118.801 156.362V285.056C118.807 290.184 120.846 295.1 124.472 298.725C128.098 302.351 133.014 304.391 138.142 304.397H396.711C401.839 304.391 406.755 302.351 410.38 298.725C414.006 295.1 416.046 290.184 416.052 285.056V156.362C416.046 151.234 414.006 146.319 410.38 142.693C406.755 139.067 401.839 137.027 396.711 137.022H138.142Z" fill="#CCCCCC"/>
<path d="M408.605 341.973H160.814C158.672 341.973 156.618 341.122 155.103 339.608C153.589 338.094 152.738 336.039 152.738 333.898C152.738 331.756 153.589 329.702 155.103 328.187C156.618 326.673 158.672 325.822 160.814 325.822H408.605C410.747 325.822 412.801 326.673 414.316 328.187C415.83 329.702 416.681 331.756 416.681 333.898C416.681 336.039 415.83 338.094 414.316 339.608C412.801 341.122 410.747 341.973 408.605 341.973Z" fill="#E6E6E6"/>
<path d="M240.251 264.965C238.783 264.961 237.34 264.585 236.056 263.873C234.683 263.132 233.538 262.032 232.744 260.689C231.95 259.347 231.536 257.813 231.549 256.253V184.431C231.549 182.873 231.967 181.345 232.76 180.004C233.553 178.664 234.691 177.561 236.056 176.811C237.421 176.061 238.962 175.691 240.519 175.741C242.075 175.79 243.59 176.257 244.904 177.092L313.036 213.003C314.272 213.788 315.289 214.872 315.994 216.155C316.699 217.438 317.068 218.878 317.068 220.342C317.068 221.806 316.699 223.246 315.994 224.529C315.289 225.811 314.272 226.896 313.036 227.681L244.904 263.592C243.516 264.484 241.901 264.961 240.251 264.965V264.965Z" fill="#F2F2F2"/>
<path d="M640.359 229.157H532.306C530.052 229.155 527.892 228.258 526.298 226.665C524.705 225.071 523.808 222.911 523.806 220.657V166.877C523.808 164.624 524.705 162.463 526.298 160.87C527.892 159.276 530.052 158.38 532.306 158.377H640.359C642.613 158.38 644.773 159.276 646.367 160.87C647.961 162.463 648.857 164.624 648.859 166.877V220.657C648.857 222.911 647.961 225.071 646.367 226.665C644.773 228.258 642.613 229.155 640.359 229.157V229.157Z" fill="#F3F6F7"/>
<path d="M640.359 230.157H532.306C529.787 230.154 527.372 229.152 525.591 227.371C523.81 225.59 522.809 223.176 522.806 220.657V166.877C522.809 164.358 523.81 161.944 525.591 160.163C527.372 158.382 529.787 157.38 532.306 157.377H640.359C642.878 157.38 645.293 158.382 647.074 160.163C648.855 161.944 649.857 164.358 649.859 166.877V220.657C649.857 223.176 648.855 225.59 647.074 227.371C645.293 229.152 642.878 230.154 640.359 230.157ZM532.306 159.377C530.317 159.379 528.411 160.17 527.005 161.576C525.599 162.982 524.808 164.889 524.806 166.877V220.657C524.808 222.646 525.599 224.552 527.005 225.958C528.411 227.364 530.317 228.155 532.306 228.157H640.359C642.348 228.155 644.254 227.364 645.66 225.958C647.066 224.552 647.857 222.646 647.859 220.657V166.877C647.857 164.889 647.066 162.982 645.66 161.576C644.254 160.17 642.348 159.379 640.359 159.377H532.306Z" fill="#CCCCCC"/>
<path d="M622.608 255.473H549.818C547.678 255.471 545.626 254.619 544.114 253.105C542.601 251.59 541.751 249.538 541.751 247.397C541.751 245.257 542.601 243.205 544.114 241.69C545.626 240.176 547.678 239.324 549.818 239.322H622.608C624.75 239.322 626.804 240.173 628.318 241.687C629.833 243.202 630.684 245.256 630.684 247.397C630.684 249.539 629.833 251.593 628.318 253.108C626.804 254.622 624.75 255.473 622.608 255.473V255.473Z" fill="#E6E6E6"/>
<path d="M574.714 212.906C574.1 212.904 573.497 212.747 572.961 212.449C572.387 212.14 571.909 211.68 571.577 211.119C571.245 210.558 571.072 209.917 571.077 209.265V179.251C571.077 178.6 571.252 177.962 571.583 177.401C571.915 176.841 572.39 176.38 572.961 176.067C573.531 175.754 574.175 175.599 574.826 175.62C575.476 175.641 576.109 175.836 576.659 176.184L605.13 191.191C605.646 191.519 606.071 191.972 606.366 192.509C606.661 193.045 606.815 193.646 606.815 194.258C606.815 194.87 606.661 195.472 606.366 196.008C606.071 196.544 605.646 196.997 605.13 197.325L576.659 212.332C576.078 212.705 575.403 212.904 574.714 212.906V212.906Z" fill="#586F7C"/>
<path d="M571.359 460.514H463.305C461.051 460.511 458.891 459.615 457.297 458.021C455.704 456.428 454.808 454.267 454.805 452.014V398.234C454.807 395.98 455.704 393.82 457.297 392.226C458.891 390.633 461.051 389.736 463.305 389.734H571.359C573.612 389.736 575.773 390.633 577.366 392.226C578.96 393.82 579.856 395.98 579.859 398.234V452.014C579.856 454.267 578.96 456.428 577.366 458.021C575.773 459.615 573.612 460.511 571.359 460.514V460.514Z" fill="#F3F6F7"/>
<path d="M571.359 461.514H463.305C460.786 461.511 458.372 460.509 456.591 458.728C454.81 456.947 453.808 454.532 453.805 452.014V398.234C453.808 395.715 454.81 393.3 456.591 391.519C458.372 389.738 460.786 388.737 463.305 388.734H571.359C573.877 388.737 576.292 389.738 578.073 391.519C579.854 393.3 580.856 395.715 580.859 398.234V452.014C580.856 454.532 579.854 456.947 578.073 458.728C576.292 460.509 573.877 461.511 571.359 461.514V461.514ZM463.305 390.734C461.317 390.736 459.41 391.527 458.004 392.933C456.598 394.339 455.807 396.245 455.805 398.234V452.014C455.807 454.002 456.598 455.909 458.004 457.315C459.41 458.721 461.317 459.512 463.305 459.514H571.359C573.347 459.512 575.253 458.721 576.66 457.315C578.066 455.909 578.857 454.002 578.859 452.014V398.234C578.857 396.245 578.066 394.339 576.66 392.933C575.253 391.527 573.347 390.736 571.359 390.734H463.305Z" fill="#CCCCCC"/>
<path d="M553.607 486.974H480.818C478.677 486.971 476.626 486.119 475.113 484.605C473.6 483.091 472.751 481.038 472.751 478.898C472.751 476.758 473.6 474.705 475.113 473.191C476.626 471.677 478.677 470.825 480.818 470.822H553.607C555.749 470.822 557.803 471.673 559.317 473.188C560.832 474.702 561.683 476.756 561.683 478.898C561.683 481.04 560.832 483.094 559.317 484.608C557.803 486.123 555.749 486.974 553.607 486.974Z" fill="#E6E6E6"/>
<path d="M505.45 445.907C504.837 445.905 504.234 445.748 503.697 445.45C503.124 445.141 502.645 444.681 502.313 444.12C501.981 443.559 501.808 442.918 501.814 442.266V412.252C501.814 411.601 501.988 410.962 502.32 410.402C502.651 409.842 503.127 409.381 503.697 409.068C504.267 408.754 504.912 408.6 505.562 408.621C506.213 408.641 506.845 408.836 507.395 409.185L535.866 424.192C536.383 424.52 536.808 424.973 537.102 425.509C537.397 426.045 537.551 426.647 537.551 427.259C537.551 427.871 537.397 428.472 537.102 429.008C536.808 429.545 536.383 429.998 535.866 430.326L507.395 445.333C506.815 445.706 506.14 445.905 505.45 445.907V445.907Z" fill="#586F7C"/>
<path d="M204.443 274.449L149.139 274.82C149.139 274.82 117.641 264.666 103.357 266.788L97.895 288.243L137.13 301.242L205.414 291.335C206.947 292.109 208.656 292.466 210.371 292.369C212.085 292.272 213.743 291.726 215.179 290.785C216.615 289.843 217.778 288.54 218.55 287.007C219.323 285.473 219.677 283.764 219.579 282.05C219.48 280.335 218.932 278.677 217.989 277.243C217.046 275.808 215.742 274.647 214.207 273.876C212.673 273.106 210.963 272.753 209.249 272.853C207.535 272.954 205.877 273.504 204.444 274.449L204.443 274.449Z" fill="#A0616A"/>
<path d="M136.662 303.32L71.0475 284.449L65.074 262.191C63.5178 259.222 62.8233 255.876 63.0688 252.532C63.3143 249.189 64.4901 245.98 66.4634 243.27V243.27C72.0649 235.683 76.4434 243.219 84.393 248.292C98.3289 249.277 133.113 261.179 147.233 274.96L146.121 283.432L136.662 303.32Z" fill="#3F3D56"/>
<path d="M193.751 285.152C192.283 285.148 190.84 284.772 189.556 284.059C188.183 283.319 187.038 282.218 186.244 280.876C185.45 279.533 185.037 277.999 185.049 276.44V204.617C185.049 203.06 185.467 201.531 186.26 200.191C187.053 198.85 188.191 197.747 189.556 196.997C190.921 196.247 192.462 195.878 194.019 195.927C195.575 195.977 197.09 196.443 198.405 197.278L266.536 233.19C267.772 233.975 268.789 235.059 269.494 236.342C270.199 237.624 270.568 239.064 270.568 240.528C270.568 241.992 270.199 243.432 269.494 244.715C268.789 245.998 267.772 247.082 266.536 247.867L198.405 283.778C197.016 284.671 195.401 285.147 193.751 285.152V285.152Z" fill="#586F7C"/>
<path d="M147.98 631.091L161.939 631.09L168.579 577.25L147.978 577.251L147.98 631.091Z" fill="#A0616A"/>
<path d="M144.419 626.533L148.348 626.533L163.687 620.295L171.909 626.532H171.91C176.556 626.532 181.012 628.378 184.297 631.663C187.582 634.948 189.428 639.404 189.429 644.05V644.619L144.42 644.621L144.419 626.533Z" fill="#2F2E41"/>
<path d="M48.5786 617.95L61.8008 622.426L85.3591 573.561L65.8458 566.954L48.5786 617.95Z" fill="#A0616A"/>
<path d="M46.6678 612.491L50.3892 613.751L66.9189 612.762L72.7054 621.307L72.7065 621.307C77.107 622.797 80.7353 625.975 82.7934 630.14C84.8514 634.306 85.1705 639.118 83.6806 643.518L83.498 644.058L40.8669 629.623L46.6678 612.491Z" fill="#2F2E41"/>
<path d="M64.7585 399.182C64.7585 399.182 63.1286 418.741 67.2034 437.485C71.2782 456.229 80.0475 518.449 80.0475 518.449C62.2856 547.643 51.9916 576.371 50.0471 605.45L75.0474 607.45L110.844 522.515L114.471 437.485L140.55 495.347L139.209 499.817C138.892 500.874 138.931 502.006 139.32 503.039C139.709 504.072 140.426 504.948 141.362 505.534V505.534C141.362 505.534 138.92 521.425 140.55 521.425C142.18 521.425 146.255 523.87 146.255 523.87C136.095 555.498 134.731 585.787 144.048 614.45L166.049 613.45L180.483 488.827L169.889 421.186L169.074 408.146L165.406 408.297L163.539 402.849L160.109 393.477L64.7585 399.182Z" fill="#2F2E41"/>
<path d="M63.3499 403.29L63.2047 403.086C55.4474 392.226 67.1143 366.129 68.874 362.346L61.4625 359.941L54.9818 305.101L50.2421 286.156C48.4562 278.994 48.6084 271.486 50.6831 264.402C52.7577 257.319 56.6801 250.915 62.0475 245.848L73.0033 235.518L86.3181 215.817H107.79L115.152 229.723C122.289 231.373 128.622 235.474 133.047 241.313C137.472 247.151 139.708 254.357 139.366 261.675L137.697 298.146L144.229 343.556L144.233 351.774L155.574 370.367L158.044 381.894C159.066 383.243 165.814 392.24 165.814 394.7C165.814 395.069 165.541 395.426 164.956 395.822C160.358 398.936 134.941 405.284 123.692 400.782C111.71 395.991 64.0774 403.179 63.5975 403.252L63.3499 403.29Z" fill="#3F3D56"/>
<path d="M282.673 644.26C282.674 644.416 282.644 644.57 282.585 644.714C282.525 644.858 282.438 644.99 282.329 645.1C282.219 645.211 282.088 645.298 281.944 645.358C281.801 645.418 281.646 645.45 281.491 645.45H1.19002C0.874405 645.45 0.571716 645.325 0.348545 645.102C0.125374 644.878 0 644.576 0 644.26C0 643.944 0.125374 643.642 0.348545 643.419C0.571716 643.195 0.874405 643.07 1.19002 643.07H281.483C281.798 643.069 282.1 643.193 282.323 643.415C282.547 643.637 282.673 643.938 282.673 644.253V644.26Z" fill="#CCCCCC"/>
<path d="M99.8275 209.458C115.532 209.458 128.264 196.726 128.264 181.021C128.264 165.317 115.532 152.585 99.8275 152.585C84.1225 152.585 71.3911 165.317 71.3911 181.021C71.3911 196.726 84.1225 209.458 99.8275 209.458Z" fill="#A0616A"/>
<path d="M205.388 202.853L161.515 236.526C161.515 236.526 130.272 247.439 120.163 257.751L128.757 278.155L167.886 264.841L216.354 215.731C218.043 215.424 219.621 214.676 220.93 213.565C222.238 212.453 223.231 211.017 223.808 209.399C224.385 207.782 224.525 206.042 224.216 204.353C223.906 202.664 223.157 201.087 222.044 199.779C220.931 198.472 219.493 197.481 217.875 196.906C216.257 196.331 214.516 196.192 212.828 196.504C211.14 196.816 209.563 197.567 208.257 198.681C206.951 199.796 205.962 201.235 205.388 202.853V202.853Z" fill="#A0616A"/>
<path d="M168.767 266.78L107.819 284.626L86.864 277.19C83.8309 275.761 81.258 273.513 79.4358 270.699C77.6136 267.885 76.6149 264.617 76.5524 261.265C76.4403 251.835 84.4793 255.201 93.8797 254.449C105.586 246.824 140.505 235.321 160.08 237.788L164.306 245.214L168.767 266.78Z" fill="#3F3D56"/>
<path d="M119.327 148.19C117.289 148.129 117.988 144.288 116.346 143.062C116.338 143.099 116.33 143.137 116.321 143.174C116.106 144.003 115.63 144.742 114.963 145.281C114.297 145.82 113.474 146.131 112.618 146.167C111.761 146.204 110.916 145.964 110.206 145.484C109.495 145.004 108.958 144.308 108.673 143.5C108.401 142.565 107.908 141.709 107.236 141.004C106.564 140.298 105.732 139.765 104.811 139.448C104.709 143.009 102.015 146.099 98.8024 147.637C95.5893 149.175 91.9257 149.431 88.3639 149.484C84.8021 149.536 81.1891 149.417 77.7352 150.289C74.2813 151.16 70.9218 153.209 69.4461 156.451C67.9704 159.694 69.0233 164.157 72.2501 165.666C69.7503 165.679 67.6292 167.742 66.7649 170.088C66.0564 172.494 65.8716 175.023 66.2229 177.507C66.9254 186.702 68.6382 196.601 75.3339 202.943C80.437 207.776 87.7412 209.723 94.7697 209.695C101.798 209.667 100.562 209.021 107.358 207.227C107.358 207.227 113.819 188.705 112.192 186.883C110.565 185.061 109.214 182.73 109.508 180.305C109.803 177.88 112.409 175.708 114.67 176.631C114.29 175.659 114.003 175.473 113.824 175.523C113.938 175.247 114.038 174.965 114.123 174.678C114.548 173.217 115.315 171.878 116.359 170.771C117.403 169.664 118.695 168.82 120.128 168.31C121.576 167.84 123.133 167.824 124.59 168.265C126.047 168.706 127.335 169.582 128.279 170.776C135.72 163.798 131.104 148.54 119.327 148.19Z" fill="#2F2E41"/>
<path d="M600.675 34.4843H146.376C145.904 34.4742 145.454 34.2795 145.124 33.9418C144.793 33.604 144.608 33.1503 144.608 32.6777C144.608 32.2051 144.793 31.7513 145.124 31.4136C145.454 31.0759 145.904 30.8812 146.376 30.8711H600.675C601.147 30.8812 601.597 31.0759 601.928 31.4136C602.258 31.7513 602.443 32.2051 602.443 32.6777C602.443 33.1503 602.258 33.604 601.928 33.9418C601.597 34.2795 601.147 34.4742 600.675 34.4843V34.4843Z" fill="#CACACA"/>
<path d="M177.301 21.647C183.148 21.647 187.889 16.8011 187.889 10.8235C187.889 4.84584 183.148 0 177.301 0C171.454 0 166.713 4.84584 166.713 10.8235C166.713 16.8011 171.454 21.647 177.301 21.647Z" fill="#3F3D56"/>
<path d="M213.876 21.647C219.724 21.647 224.464 16.8011 224.464 10.8235C224.464 4.84584 219.724 0 213.876 0C208.029 0 203.289 4.84584 203.289 10.8235C203.289 16.8011 208.029 21.647 213.876 21.647Z" fill="#3F3D56"/>
<path d="M250.452 21.647C256.299 21.647 261.04 16.8011 261.04 10.8235C261.04 4.84584 256.299 0 250.452 0C244.605 0 239.864 4.84584 239.864 10.8235C239.864 16.8011 244.605 21.647 250.452 21.647Z" fill="#3F3D56"/>
<path d="M578.653 2.68268H552.672C552.157 2.69287 551.666 2.90461 551.306 3.27243C550.945 3.64025 550.743 4.1348 550.743 4.64991C550.743 5.16501 550.945 5.65958 551.306 6.0274C551.666 6.39522 552.157 6.60695 552.672 6.61714H578.653C579.168 6.60695 579.659 6.39522 580.019 6.0274C580.38 5.65958 580.582 5.16501 580.582 4.64991C580.582 4.1348 580.38 3.64025 580.019 3.27243C579.659 2.90461 579.168 2.69287 578.653 2.68268V2.68268Z" fill="#3F3D56"/>
<path d="M578.653 10.0671H552.672C552.157 10.0773 551.666 10.2891 551.306 10.6569C550.945 11.0247 550.743 11.5193 550.743 12.0344C550.743 12.5495 550.945 13.044 551.306 13.4118C551.666 13.7797 552.157 13.9914 552.672 14.0016H578.653C579.168 13.9914 579.659 13.7797 580.019 13.4118C580.38 13.044 580.582 12.5495 580.582 12.0344C580.582 11.5193 580.38 11.0247 580.019 10.6569C579.659 10.2891 579.168 10.0773 578.653 10.0671V10.0671Z" fill="#3F3D56"/>
<path d="M578.653 17.4418H552.672C552.157 17.452 551.666 17.6637 551.306 18.0315C550.945 18.3993 550.743 18.8939 550.743 19.409C550.743 19.9241 550.945 20.4187 551.306 20.7865C551.666 21.1543 552.157 21.366 552.672 21.3762H578.653C579.168 21.366 579.659 21.1543 580.019 20.7865C580.38 20.4187 580.582 19.9241 580.582 19.409C580.582 18.8939 580.38 18.3993 580.019 18.0315C579.659 17.6637 579.168 17.452 578.653 17.4418V17.4418Z" fill="#3F3D56"/>
<path d="M359.08 136.024V163.184C359.08 164.534 356.72 165.664 353.54 165.974C353.513 165.972 353.485 165.975 353.46 165.984C352.93 166.024 352.37 166.054 351.8 166.054C350.046 166.086 348.302 165.801 346.65 165.214C346.5 165.154 346.35 165.084 346.2 165.024C346.06 164.944 345.91 164.874 345.77 164.794C344.98 164.324 344.52 163.774 344.52 163.184V136.024H359.08Z" fill="#CCCCCC"/>
<path d="M580.107 470.159C586.94 470.159 592.479 464.62 592.479 457.787C592.479 450.954 586.94 445.414 580.107 445.414C573.274 445.414 567.734 450.954 567.734 457.787C567.734 464.62 573.274 470.159 580.107 470.159Z" fill="#3F3D56"/>
<path d="M579.181 462.732C579.154 462.732 579.128 462.731 579.101 462.729C578.868 462.718 578.641 462.657 578.434 462.549C578.227 462.441 578.045 462.29 577.902 462.106L575.834 459.448C575.704 459.28 575.608 459.088 575.551 458.883C575.495 458.678 575.479 458.464 575.506 458.253C575.532 458.042 575.6 457.839 575.705 457.654C575.81 457.469 575.95 457.307 576.118 457.176L576.192 457.118C576.36 456.988 576.552 456.891 576.757 456.835C576.962 456.778 577.176 456.763 577.387 456.789C577.598 456.816 577.802 456.883 577.987 456.989C578.172 457.094 578.334 457.234 578.465 457.402C578.569 457.536 578.701 457.646 578.852 457.725C579.003 457.803 579.169 457.848 579.339 457.856C579.509 457.864 579.678 457.836 579.836 457.772C579.994 457.709 580.136 457.613 580.253 457.489L584.451 453.057C584.746 452.746 585.153 452.565 585.582 452.553C586.011 452.541 586.428 452.7 586.74 452.995L586.809 453.061C586.963 453.207 587.087 453.382 587.174 453.576C587.26 453.77 587.308 453.98 587.314 454.192C587.319 454.405 587.283 454.616 587.207 454.815C587.131 455.013 587.017 455.195 586.87 455.349L580.355 462.226C580.204 462.386 580.022 462.513 579.82 462.6C579.618 462.687 579.4 462.732 579.181 462.732V462.732Z" fill="#F3F6F7"/>
<path d="M648.107 240.159C654.94 240.159 660.48 234.619 660.48 227.786C660.48 220.953 654.94 215.414 648.107 215.414C641.274 215.414 635.735 220.953 635.735 227.786C635.735 234.619 641.274 240.159 648.107 240.159Z" fill="#3F3D56"/>
<path d="M647.181 232.731C647.155 232.731 647.128 232.73 647.102 232.729C646.869 232.718 646.641 232.656 646.434 232.548C646.227 232.441 646.046 232.29 645.903 232.106L643.835 229.447C643.704 229.28 643.608 229.088 643.552 228.883C643.495 228.678 643.48 228.464 643.506 228.253C643.532 228.042 643.6 227.838 643.705 227.653C643.81 227.468 643.951 227.306 644.119 227.176L644.193 227.118C644.361 226.987 644.553 226.891 644.758 226.834C644.963 226.778 645.177 226.762 645.388 226.789C645.599 226.815 645.803 226.883 645.988 226.988C646.172 227.093 646.335 227.234 646.465 227.402C646.57 227.536 646.702 227.646 646.853 227.724C647.004 227.802 647.169 227.847 647.339 227.855C647.509 227.864 647.679 227.835 647.836 227.772C647.994 227.709 648.136 227.612 648.253 227.489L652.451 223.057C652.747 222.745 653.154 222.564 653.583 222.552C654.012 222.541 654.428 222.7 654.74 222.994L654.809 223.06C654.963 223.206 655.087 223.381 655.174 223.576C655.261 223.77 655.308 223.979 655.314 224.192C655.32 224.404 655.284 224.616 655.208 224.814C655.131 225.013 655.017 225.194 654.871 225.349L648.356 232.225C648.205 232.385 648.022 232.512 647.821 232.599C647.619 232.686 647.401 232.731 647.181 232.731V232.731Z" fill="#F3F6F7"/>
</g>
<defs>
<clipPath id="clip0_46_31">
<rect width="660.48" height="645.45" fill="white"/>
</clipPath>
</defs>
</svg>
